<?xml version="1.0" encoding="utf-8"?>
<svg version="1.1" xmlns:xlink="http://www.w3.org/1999/xlink" width="300px" height="170px" xmlns="http://www.w3.org/2000/svg">
  <g transform="matrix(1 0 0 1 -119 -145 )">
    <path d="M 119 145  L 419 145  L 419 315  L 119 315  L 119 145  " fill-rule="nonzero" fill="#cccccc" stroke="none" />
    <path d="M 131 157  L 407 157  L 407 303  L 131 303  L 131 157  " fill-rule="nonzero" fill="#ffffff" stroke="none" />
    <path d="M 287.75 196  C 280.61 196  275 190.39  275 183.25  C 275 176.11  280.61 170.5  287.75 170.5  C 294.89 170.5  300.5 176.11  300.5 183.25  C 300.5 190.39  294.89 196  287.75 196  " fill-rule="nonzero" fill="#cccccc" stroke="none" />
    <path d="M 136 299  L 136 223.65  L 202.75 189.4  L 296.2 252.42  L 349.6 209.95  L 403 252.42  L 403 299  L 136 299  " fill-rule="nonzero" fill="#169bd5" stroke="none" />
  </g>
</svg>